<?xml version="1.0" encoding="UTF-8" standalone="no"?>
<!-- Created with Inkscape (http://www.inkscape.org/) -->

<svg
   width="396.9798"
   height="396.97977"
   viewBox="0 0 396.9798 396.97977"
   version="1.1"
   id="svg1"
   inkscape:version="1.4 (e7c3feb100, 2024-10-09)"
   sodipodi:docname="logo-jvictors.svg"
   xmlns:inkscape="http://www.inkscape.org/namespaces/inkscape"
   xmlns:sodipodi="http://sodipodi.sourceforge.net/DTD/sodipodi-0.dtd"
   xmlns="http://www.w3.org/2000/svg"
   xmlns:svg="http://www.w3.org/2000/svg">
  <sodipodi:namedview
     id="namedview1"
     pagecolor="#ffffff"
     bordercolor="#000000"
     borderopacity="0.25"
     inkscape:showpageshadow="2"
     inkscape:pageopacity="0.0"
     inkscape:pagecheckerboard="0"
     inkscape:deskcolor="#d1d1d1"
     inkscape:document-units="px"
     showgrid="false"
     inkscape:zoom="0.35355339"
     inkscape:cx="872.56976"
     inkscape:cy="564.27121"
     inkscape:window-width="1280"
     inkscape:window-height="648"
     inkscape:window-x="0"
     inkscape:window-y="0"
     inkscape:window-maximized="1"
     inkscape:current-layer="layer1"
     showguides="true">
    <inkscape:grid
       id="grid89"
       units="px"
       originx="-273.85742"
       originy="-381.33767"
       spacingx="1"
       spacingy="1"
       empcolor="#0099e5"
       empopacity="0.30196078"
       color="#0099e5"
       opacity="0.14901961"
       empspacing="5"
       enabled="true"
       visible="false" />
    <inkscape:page
       x="0"
       y="0"
       width="396.9798"
       height="396.97977"
       id="page2"
       margin="0"
       bleed="0" />
  </sodipodi:namedview>
  <defs
     id="defs1" />
  <g
     inkscape:label="Camada 1"
     inkscape:groupmode="layer"
     id="layer1"
     transform="translate(-273.85742,-381.33768)">
    <path
       d="m 61.812335,418.22005 v -53.1541 h 62.997445 c 9.9746,0 17.98053,-3.2811 24.01778,-9.8433 6.29975,-6.5623 9.44962,-15.0932 9.44962,-25.5927 V 137.94832 H 59.843665 V 84.794227 H 217.33728 V 331.59855 c 0,26.7739 -7.87468,47.9043 -23.62404,63.3912 -15.74936,15.4869 -37.27349,23.2303 -64.57238,23.2303 z M 318.02579,301.34795 245.97246,84.794227 h 61.02877 L 344.7997,206.45804 c 2.36241,7.3497 4.46232,14.96189 6.29974,22.83657 2.09992,7.87468 3.41237,15.22438 3.93734,22.0491 0.52498,-6.82472 1.70618,-14.17442 3.54361,-22.0491 1.83743,-7.87468 3.8061,-15.35563 5.90601,-22.44284 l 37.011,-122.057543 h 61.81624 L 392.04778,301.34795 Z m 182.29899,0 v -53.15411 h 71.65959 V 137.94832 H 508.19946 V 84.794227 H 631.04447 V 248.19384 h 62.20998 v 53.15411 z m 330.343,3.9373 c -19.16172,0 -35.96104,-3.5436 -50.39795,-10.6308 -14.43691,-7.3497 -25.59271,-17.4555 -33.46739,-30.3175 -7.87468,-13.12448 -11.81202,-28.34886 -11.81202,-45.67316 v -51.18542 c 0,-17.58679 3.93734,-32.81117 11.81202,-45.67314 7.87468,-12.86198 19.03048,-22.836583 33.46739,-29.923793 14.43691,-7.3497 31.23623,-11.024548 50.39795,-11.024548 28.61134,0 51.44791,7.218458 68.50972,21.655371 17.06181,14.43691 26.11769,34.12361 27.16764,59.0601 h -57.48516 c -0.78747,-9.18713 -4.72481,-16.40558 -11.81202,-21.65537 -6.82473,-5.24979 -15.61812,-7.87468 -26.38018,-7.87468 -11.81202,0 -20.8679,3.01863 -27.16765,9.05588 -6.29974,6.03725 -9.44961,14.83065 -9.44961,26.38018 v 51.18542 c 0,11.28704 3.14987,20.08043 9.44961,26.38018 6.29975,6.03725 15.35563,9.05588 27.16765,9.05588 10.76206,0 19.55545,-2.49365 26.38018,-7.48094 7.08721,-5.24979 11.02455,-12.59949 11.81202,-22.04911 h 57.48516 c -1.04995,24.93649 -10.10583,44.62315 -27.16764,59.06015 -17.06181,14.4369 -39.89838,21.6553 -68.50972,21.6553 z m 254.35232,-3.9373 c -22.0491,0 -39.3734,-6.2998 -51.9729,-18.8992 -12.5995,-12.5995 -18.8992,-29.92383 -18.8992,-51.97294 V 137.94832 H 955.87533 V 84.794227 H 1014.148 V 23.765459 h 59.0601 v 61.028768 h 84.6528 v 53.154093 h -84.6528 v 90.55882 c 0,5.77477 1.4437,10.49958 4.331,14.17443 3.1499,3.67485 7.6123,5.51227 13.387,5.51227 h 64.9661 v 53.15411 z m 214.5852,3.9373 c -19.1617,0 -35.8298,-3.5436 -50.0043,-10.6308 -14.1744,-7.3497 -25.1989,-17.4555 -33.0736,-30.3175 -7.6122,-13.12448 -11.4183,-28.34886 -11.4183,-45.67316 v -51.18542 c 0,-17.32429 3.8061,-32.41743 11.4183,-45.27941 7.8747,-13.12447 18.8992,-23.230313 33.0736,-30.317523 14.1745,-7.3497 30.8426,-11.024548 50.0043,-11.024548 19.4242,0 36.0923,3.674848 50.0042,11.024548 14.1744,7.08721 25.0677,17.193053 32.6799,30.317523 7.8747,12.86198 11.812,27.95512 11.812,45.27941 v 51.18542 c 0,17.3243 -3.9373,32.54868 -11.812,45.67316 -7.6122,12.862 -18.5055,22.9678 -32.6799,30.3175 -13.9119,7.0872 -30.58,10.6308 -50.0042,10.6308 z m 0,-51.1854 c 11.5495,0 20.3429,-3.01863 26.3801,-9.05588 6.0373,-6.29975 9.0559,-15.09314 9.0559,-26.38018 v -51.18542 c 0,-11.54953 -3.0186,-20.34293 -9.0559,-26.38018 -6.0372,-6.03725 -14.8306,-9.05588 -26.3801,-9.05588 -11.2871,0 -20.0805,3.01863 -26.3802,9.05588 -6.0373,6.03725 -9.0559,14.83065 -9.0559,26.38018 v 51.18542 c 0,11.28704 3.0186,20.08043 9.0559,26.38018 6.2997,6.03725 15.0931,9.05588 26.3802,9.05588 z m 151.9815,47.2481 V 84.794227 h 57.0914 v 40.948343 c 3.1499,-13.91194 9.9746,-24.80525 20.4742,-32.679933 10.7621,-8.13717 24.149,-12.205748 40.1609,-12.205748 21.7866,0 38.8484,7.349698 51.1854,22.049101 12.337,14.69941 18.5055,34.91109 18.5055,60.63504 v 21.65537 h -59.0601 v -17.71803 c 0,-11.28704 -3.0186,-19.94919 -9.0559,-25.98644 -6.0373,-6.29975 -14.5682,-9.44962 -25.5927,-9.44962 -11.0245,0 -19.5554,3.54361 -25.5927,10.63082 -6.0373,6.82472 -9.0559,16.66807 -9.0559,29.53005 v 129.14477 z m 311.4437,3.9373 c -17.8493,0 -33.4675,-2.7561 -46.8544,-8.2684 -13.3869,-5.7748 -23.8865,-13.6494 -31.4987,-23.624 -7.3497,-9.9746 -11.0246,-21.6554 -11.0246,-35.04236 h 57.8789 c 0,7.3497 2.7562,12.86198 8.2685,16.53683 5.5123,3.67485 13.2557,5.51233 23.2303,5.51233 h 17.3243 c 10.7621,0 19.0305,-1.83748 24.8052,-5.51233 6.0373,-3.67485 9.0559,-8.92464 9.0559,-15.74936 0,-6.56223 -2.3624,-11.28704 -7.0872,-14.17442 -4.7248,-3.14987 -11.9433,-5.24979 -21.6554,-6.29975 l -49.6105,-5.90601 c -19.1617,-2.3624 -33.8611,-9.44961 -44.0982,-21.26164 -10.2371,-12.07451 -15.3556,-27.0364 -15.3556,-44.88567 0,-43.83572 28.0864,-65.753581 84.2591,-65.753581 h 18.5055 c 26.5114,0 47.6418,5.774758 63.3911,17.324288 15.7494,11.549533 23.6241,27.036413 23.6241,46.460623 h -57.8789 c 0,-6.29975 -2.6249,-11.1558 -7.8747,-14.56816 -4.9873,-3.41236 -12.0745,-5.11854 -21.2616,-5.11854 h -18.5055 c -9.1871,0 -16.1431,1.70618 -20.8679,5.11854 -4.7249,3.41236 -7.0873,8.13717 -7.0873,14.17442 0,6.03726 2.2312,10.10585 6.6935,12.20576 4.7248,2.09991 11.287,3.67485 19.6867,4.72481 l 47.2481,5.90601 c 21.2617,2.62489 37.2735,10.10584 48.0356,22.44283 10.762,12.337 16.143,28.61134 16.143,48.82302 0,21.26164 -7.6122,37.79846 -22.8365,49.61046 -15.2244,11.5496 -37.6672,17.3243 -67.3285,17.3243 z"
       id="text1-2"
       style="font-weight:800;font-size:393.734px;font-family:'JetBrains Mono NL';-inkscape-font-specification:'JetBrains Mono NL Ultra-Bold';display:none;fill:#000000;stroke:#000000;stroke-width:2.05069"
       aria-label="jvictors"
       sodipodi:nodetypes="ccscsccccssscccccccsccccccccccccccccsccssscsscccsssscscccsssssccccccccccscsccssccssccsccssccsscsssscsscscccccsssccscscsccsccccssscsccccsssscccsssscscsscss" />
    <path
       id="rect1"
       style="display:inline;fill:#000036;stroke:#000000"
       d="m 373.35237,381.83768 h 197.9899 c 54.8432,0 98.99495,44.15174 98.99495,98.99495 v 197.9899 c 0,54.8432 -44.15175,98.99494 -98.99495,98.99494 h -197.9899 c -54.8432,0 -98.99495,-44.15174 -98.99495,-98.99494 v -197.9899 c 0,-54.84321 44.15175,-98.99495 98.99495,-98.99495 z" />
    <g
       id="g17"
       transform="matrix(1.5524763,0,0,1.5524763,204.43357,-418.1492)"
       style="display:inline;fill:#ffffff;stroke:none">
      <path
         d="m 93.60188,710.35899 v -25.92 h 30.72 c 4.864,0 8.768,-1.6 11.712,-4.8 3.072,-3.2 4.608,-7.36 4.608,-12.48 v -111.04 h -48 v -25.92 h 76.8 v 137.92 c 0,13.056 -3.84,23.36 -11.52,30.912 -7.68,7.552 -18.176,11.328 -31.488,11.328 z"
         id="text17"
         style="font-weight:800;font-size:192px;font-family:'JetBrains Mono NL';-inkscape-font-specification:'JetBrains Mono NL Ultra-Bold';fill:#ffffff;stroke:none"
         aria-label="j"
         sodipodi:nodetypes="ccscsccccsssc" />
      <path
         d="m 251.54188,575.29899 v 25.92 h -30.72 c -4.864,0 -8.768,1.6 -11.712,4.8 -3.072,3.2 -4.608,7.36 -4.608,12.48 v 111.04 h 48 v 25.92 h -76.8 v -137.92 c 0,-13.056 3.84,-23.36 11.52,-30.912 7.68,-7.552 18.176,-11.328 31.488,-11.328 z"
         id="text17-4"
         style="font-weight:800;font-size:192px;font-family:'JetBrains Mono NL';-inkscape-font-specification:'JetBrains Mono NL Ultra-Bold';fill:#ffffff;stroke:none"
         aria-label="j"
         sodipodi:nodetypes="ccscsccccsssc" />
    </g>
  </g>
</svg>
