<?xml version="1.0" encoding="UTF-8" standalone="no"?>
<!-- Created with Inkscape (http://www.inkscape.org/) -->

<svg
   width="512"
   height="512"
   viewBox="0 0 512 512"
   version="1.1"
   id="svg1"
   inkscape:export-filename="logo.png"
   inkscape:export-xdpi="96"
   inkscape:export-ydpi="96"
   inkscape:version="1.4.3 (0d15f75042, 2025-12-25)"
   sodipodi:docname="logo-jvictors-512x512.svg"
   xmlns:inkscape="http://www.inkscape.org/namespaces/inkscape"
   xmlns:sodipodi="http://sodipodi.sourceforge.net/DTD/sodipodi-0.dtd"
   xmlns="http://www.w3.org/2000/svg"
   xmlns:svg="http://www.w3.org/2000/svg">
  <sodipodi:namedview
     id="namedview1"
     pagecolor="#505050"
     bordercolor="#eeeeee"
     borderopacity="1"
     inkscape:showpageshadow="0"
     inkscape:pageopacity="0"
     inkscape:pagecheckerboard="0"
     inkscape:deskcolor="#505050"
     inkscape:document-units="px"
     inkscape:zoom="0.5"
     inkscape:cx="414"
     inkscape:cy="443"
     inkscape:window-width="1366"
     inkscape:window-height="699"
     inkscape:window-x="0"
     inkscape:window-y="0"
     inkscape:window-maximized="1"
     inkscape:current-layer="layer1" />
  <defs
     id="defs1" />
  <rect
     style="fill:#00001f;fill-opacity:1;stroke-width:3.20001"
     id="rect1"
     width="511.99997"
     height="511.99997"
     x="7.1054274e-15"
     y="7.1054274e-15"
     ry="87.310776" />
  <g
     inkscape:label="Camada 1"
     inkscape:groupmode="layer"
     id="layer1">
    <g
       id="g10"
       transform="matrix(1.3133009,0,0,1.3133009,-61.985526,-61.967824)">
      <g
         id="g9">
        <path
           d="m 116.89639,370.03191 v -34.90185 h 44.22907 c 10.02927,0 17.7518,-2.7079 23.1676,-8.1237 5.41581,-5.41581 8.12371,-13.03805 8.12371,-22.86673 V 185.29282 h -66.49404 v -34.90184 h 104.10379 v 154.65128 c 0,20.05853 -6.01756,35.90478 -18.05268,47.53873 -12.03512,11.63395 -28.28253,17.45092 -48.74224,17.45092 z"
           id="text1"
           style="font-weight:bold;font-size:300.878px;font-family:'JetBrains Mono';-inkscape-font-specification:'JetBrains Mono Bold';fill:#ffffff;stroke-width:25.0731"
           aria-label="j"
           sodipodi:nodetypes="ccsssccccsssc" />
        <path
           style="fill:#d45500;fill-opacity:1;stroke:none;stroke-width:0.0353553;stroke-dasharray:none;stroke-opacity:1"
           d="m 192.6866,97.934289 v -17.14734 h 18.56155 18.56155 v 17.14734 17.147341 H 211.24815 192.6866 Z"
           id="path4" />
      </g>
      <g
         id="g8">
        <path
           d="m 367.35746,115.38633 v 34.90185 h -44.22907 c -10.02927,0 -17.7518,2.7079 -23.1676,8.1237 -5.41581,5.41581 -8.12371,13.03805 -8.12371,22.86673 v 118.84681 h 66.49404 v 34.90184 H 254.22733 V 180.37598 c 0,-20.05853 6.01756,-35.90478 18.05268,-47.53873 12.03512,-11.63395 28.28253,-17.45092 48.74224,-17.45092 z"
           id="text1-5"
           style="font-weight:bold;font-size:300.878px;font-family:'JetBrains Mono';-inkscape-font-specification:'JetBrains Mono Bold';fill:#ffffff;stroke-width:25.0731"
           aria-label="j"
           sodipodi:nodetypes="ccsssccccsssc" />
        <path
           style="fill:#d45500;fill-opacity:1;stroke:none;stroke-width:0.1;stroke-dasharray:none;stroke-opacity:1"
           d="m 255,387.5 v -17 h 18 18 v 17 17 h -18 -18 z"
           id="path5" />
      </g>
    </g>
  </g>
</svg>
